<mxfile host="app.diagrams.net" modified="2024-05-05T16:07:15.449Z" agent="Mozilla/5.0 (Windows NT 10.0; Win64; x64) AppleWebKit/537.36 (KHTML, like Gecko) Chrome/124.0.0.0 Safari/537.36" etag="nex39JSw8zNwcXWB8k3Y" version="24.3.1" type="github">
  <diagram name="Page-1" id="jrwQYix80AqKBRS3dF1l">
    <mxGraphModel dx="2109" dy="1351" grid="1" gridSize="10" guides="1" tooltips="1" connect="1" arrows="1" fold="1" page="0" pageScale="1" pageWidth="850" pageHeight="1100" math="0" shadow="0">
      <root>
        <mxCell id="0" />
        <mxCell id="1" parent="0" />
        <mxCell id="ENpR0SlxcovqX8DCcxiT-2" value="" style="swimlane;startSize=0;movable=0;fillStyle=auto;shadow=0;" vertex="1" parent="1">
          <mxGeometry x="-80" y="-120" width="600" height="520" as="geometry">
            <mxRectangle x="-80" y="-120" width="50" height="40" as="alternateBounds" />
          </mxGeometry>
        </mxCell>
        <mxCell id="ENpR0SlxcovqX8DCcxiT-6" value="Create Account" style="ellipse;whiteSpace=wrap;html=1;shadow=1;fillColor=#CCFFFF;" vertex="1" parent="ENpR0SlxcovqX8DCcxiT-2">
          <mxGeometry x="80" y="40" width="120" height="40" as="geometry" />
        </mxCell>
        <mxCell id="ENpR0SlxcovqX8DCcxiT-11" value="Search Audios" style="ellipse;whiteSpace=wrap;html=1;shadow=1;fillColor=#CCFFFF;" vertex="1" parent="ENpR0SlxcovqX8DCcxiT-2">
          <mxGeometry x="80" y="90" width="120" height="40" as="geometry" />
        </mxCell>
        <mxCell id="ENpR0SlxcovqX8DCcxiT-12" value="Play Audio" style="ellipse;whiteSpace=wrap;html=1;shadow=1;fillColor=#CCFFFF;" vertex="1" parent="ENpR0SlxcovqX8DCcxiT-2">
          <mxGeometry x="140" y="240" width="120" height="40" as="geometry" />
        </mxCell>
        <mxCell id="ENpR0SlxcovqX8DCcxiT-14" value="Upload Audio" style="ellipse;whiteSpace=wrap;html=1;shadow=1;fillColor=#CCFFFF;" vertex="1" parent="ENpR0SlxcovqX8DCcxiT-2">
          <mxGeometry x="400" y="90" width="120" height="40" as="geometry" />
        </mxCell>
        <mxCell id="ENpR0SlxcovqX8DCcxiT-13" value="Manage uploaded Content" style="ellipse;whiteSpace=wrap;html=1;shadow=1;fillColor=#CCFFFF;" vertex="1" parent="ENpR0SlxcovqX8DCcxiT-2">
          <mxGeometry x="400" y="140" width="120" height="50" as="geometry" />
        </mxCell>
        <mxCell id="ENpR0SlxcovqX8DCcxiT-7" value="Sign In" style="ellipse;whiteSpace=wrap;html=1;shadow=1;fillColor=#CCFFFF;" vertex="1" parent="ENpR0SlxcovqX8DCcxiT-2">
          <mxGeometry x="400" y="40" width="120" height="40" as="geometry" />
        </mxCell>
        <mxCell id="ENpR0SlxcovqX8DCcxiT-28" value="View a creator&#39;s page" style="ellipse;whiteSpace=wrap;html=1;shadow=1;fillColor=#CCFFFF;" vertex="1" parent="ENpR0SlxcovqX8DCcxiT-2">
          <mxGeometry x="80" y="420" width="120" height="50" as="geometry" />
        </mxCell>
        <mxCell id="ENpR0SlxcovqX8DCcxiT-30" value="Edit personal Info" style="ellipse;whiteSpace=wrap;html=1;shadow=1;fillColor=#CCFFFF;" vertex="1" parent="ENpR0SlxcovqX8DCcxiT-2">
          <mxGeometry x="400" y="200" width="120" height="40" as="geometry" />
        </mxCell>
        <mxCell id="ENpR0SlxcovqX8DCcxiT-32" value="Create Playlist" style="ellipse;whiteSpace=wrap;html=1;shadow=1;fillColor=#CCFFFF;" vertex="1" parent="ENpR0SlxcovqX8DCcxiT-2">
          <mxGeometry x="400" y="250" width="120" height="40" as="geometry" />
        </mxCell>
        <mxCell id="ENpR0SlxcovqX8DCcxiT-35" value="Select Audios" style="ellipse;whiteSpace=wrap;html=1;shadow=1;fillColor=#CCFFFF;" vertex="1" parent="ENpR0SlxcovqX8DCcxiT-2">
          <mxGeometry x="400" y="420" width="120" height="40" as="geometry" />
        </mxCell>
        <mxCell id="ENpR0SlxcovqX8DCcxiT-38" value="Choose Playlist" style="ellipse;whiteSpace=wrap;html=1;shadow=1;fillColor=#CCFFFF;" vertex="1" parent="ENpR0SlxcovqX8DCcxiT-2">
          <mxGeometry x="140" y="145" width="120" height="40" as="geometry" />
        </mxCell>
        <mxCell id="ENpR0SlxcovqX8DCcxiT-42" value="View Audio Info" style="ellipse;whiteSpace=wrap;html=1;shadow=1;fillColor=#CCFFFF;" vertex="1" parent="ENpR0SlxcovqX8DCcxiT-2">
          <mxGeometry x="210" y="340" width="120" height="40" as="geometry" />
        </mxCell>
        <mxCell id="ENpR0SlxcovqX8DCcxiT-50" value="&amp;lt;&amp;lt;include&amp;gt;&amp;gt;" style="html=1;verticalAlign=bottom;labelBackgroundColor=none;endArrow=open;endFill=0;dashed=1;rounded=0;fontSize=12;startSize=8;endSize=8;curved=1;" edge="1" parent="ENpR0SlxcovqX8DCcxiT-2" source="ENpR0SlxcovqX8DCcxiT-38" target="ENpR0SlxcovqX8DCcxiT-12">
          <mxGeometry width="160" relative="1" as="geometry">
            <mxPoint x="288" y="243" as="sourcePoint" />
            <mxPoint x="182" y="187" as="targetPoint" />
          </mxGeometry>
        </mxCell>
        <mxCell id="ENpR0SlxcovqX8DCcxiT-51" value="&amp;lt;&amp;lt;include&amp;gt;&amp;gt;" style="html=1;verticalAlign=bottom;labelBackgroundColor=none;endArrow=open;endFill=0;dashed=1;rounded=0;fontSize=12;startSize=8;endSize=8;curved=1;" edge="1" parent="ENpR0SlxcovqX8DCcxiT-2" source="ENpR0SlxcovqX8DCcxiT-55" target="ENpR0SlxcovqX8DCcxiT-35">
          <mxGeometry width="160" relative="1" as="geometry">
            <mxPoint x="309.5" y="390" as="sourcePoint" />
            <mxPoint x="309.5" y="330" as="targetPoint" />
          </mxGeometry>
        </mxCell>
        <mxCell id="ENpR0SlxcovqX8DCcxiT-52" value="&amp;lt;&amp;lt;extend&amp;gt;&amp;gt;" style="html=1;verticalAlign=bottom;labelBackgroundColor=none;endArrow=open;endFill=0;dashed=1;rounded=0;fontSize=12;startSize=8;endSize=8;curved=1;" edge="1" parent="ENpR0SlxcovqX8DCcxiT-2" source="ENpR0SlxcovqX8DCcxiT-42" target="ENpR0SlxcovqX8DCcxiT-12">
          <mxGeometry width="160" relative="1" as="geometry">
            <mxPoint x="180" y="350" as="sourcePoint" />
            <mxPoint x="340" y="350" as="targetPoint" />
          </mxGeometry>
        </mxCell>
        <mxCell id="ENpR0SlxcovqX8DCcxiT-53" value="Play Next/Previous Audio" style="ellipse;whiteSpace=wrap;html=1;shadow=1;fillColor=#CCFFFF;" vertex="1" parent="ENpR0SlxcovqX8DCcxiT-2">
          <mxGeometry x="70" y="335" width="120" height="50" as="geometry" />
        </mxCell>
        <mxCell id="ENpR0SlxcovqX8DCcxiT-54" value="&amp;lt;&amp;lt;extend&amp;gt;&amp;gt;" style="html=1;verticalAlign=bottom;labelBackgroundColor=none;endArrow=open;endFill=0;dashed=1;rounded=0;fontSize=12;startSize=8;endSize=8;curved=1;" edge="1" parent="ENpR0SlxcovqX8DCcxiT-2" source="ENpR0SlxcovqX8DCcxiT-53" target="ENpR0SlxcovqX8DCcxiT-12">
          <mxGeometry width="160" relative="1" as="geometry">
            <mxPoint x="264" y="233" as="sourcePoint" />
            <mxPoint x="181" y="187" as="targetPoint" />
          </mxGeometry>
        </mxCell>
        <mxCell id="ENpR0SlxcovqX8DCcxiT-55" value="Add Audio to Playlist" style="ellipse;whiteSpace=wrap;html=1;shadow=1;fillColor=#CCFFFF;" vertex="1" parent="ENpR0SlxcovqX8DCcxiT-2">
          <mxGeometry x="400" y="340" width="120" height="40" as="geometry" />
        </mxCell>
        <mxCell id="ENpR0SlxcovqX8DCcxiT-57" value="&amp;lt;&amp;lt;extend&amp;gt;&amp;gt;" style="html=1;verticalAlign=bottom;labelBackgroundColor=none;endArrow=open;endFill=0;dashed=1;rounded=0;fontSize=12;startSize=8;endSize=8;curved=1;exitX=0.5;exitY=0;exitDx=0;exitDy=0;entryX=0.5;entryY=1;entryDx=0;entryDy=0;" edge="1" parent="ENpR0SlxcovqX8DCcxiT-2" source="ENpR0SlxcovqX8DCcxiT-55" target="ENpR0SlxcovqX8DCcxiT-32">
          <mxGeometry x="-0.3333" width="160" relative="1" as="geometry">
            <mxPoint x="266" y="301" as="sourcePoint" />
            <mxPoint x="224" y="239" as="targetPoint" />
            <mxPoint as="offset" />
          </mxGeometry>
        </mxCell>
        <mxCell id="ENpR0SlxcovqX8DCcxiT-58" value="&amp;lt;&amp;lt;extend&amp;gt;&amp;gt;" style="html=1;verticalAlign=bottom;labelBackgroundColor=none;endArrow=open;endFill=0;dashed=1;rounded=0;fontSize=12;startSize=8;endSize=8;curved=1;" edge="1" parent="ENpR0SlxcovqX8DCcxiT-2" source="ENpR0SlxcovqX8DCcxiT-55" target="ENpR0SlxcovqX8DCcxiT-42">
          <mxGeometry x="-0.0924" y="-4" width="160" relative="1" as="geometry">
            <mxPoint x="470" y="395" as="sourcePoint" />
            <mxPoint x="470" y="350" as="targetPoint" />
            <mxPoint as="offset" />
          </mxGeometry>
        </mxCell>
        <mxCell id="ENpR0SlxcovqX8DCcxiT-8" style="edgeStyle=none;curved=1;rounded=0;orthogonalLoop=1;jettySize=auto;html=1;entryX=0;entryY=0.5;entryDx=0;entryDy=0;fontSize=12;startSize=8;endSize=8;endArrow=none;endFill=0;" edge="1" parent="1" source="ENpR0SlxcovqX8DCcxiT-3" target="ENpR0SlxcovqX8DCcxiT-6">
          <mxGeometry relative="1" as="geometry" />
        </mxCell>
        <mxCell id="ENpR0SlxcovqX8DCcxiT-21" style="edgeStyle=none;curved=1;rounded=0;orthogonalLoop=1;jettySize=auto;html=1;fontSize=12;startSize=8;endSize=8;entryX=0;entryY=0.5;entryDx=0;entryDy=0;endArrow=none;endFill=0;" edge="1" parent="1" source="ENpR0SlxcovqX8DCcxiT-3" target="ENpR0SlxcovqX8DCcxiT-11">
          <mxGeometry relative="1" as="geometry" />
        </mxCell>
        <mxCell id="ENpR0SlxcovqX8DCcxiT-22" style="edgeStyle=none;curved=1;rounded=0;orthogonalLoop=1;jettySize=auto;html=1;entryX=0;entryY=0.5;entryDx=0;entryDy=0;fontSize=12;startSize=8;endSize=8;endArrow=none;endFill=0;" edge="1" parent="1" source="ENpR0SlxcovqX8DCcxiT-3" target="ENpR0SlxcovqX8DCcxiT-12">
          <mxGeometry relative="1" as="geometry" />
        </mxCell>
        <mxCell id="ENpR0SlxcovqX8DCcxiT-33" style="edgeStyle=none;curved=1;rounded=0;orthogonalLoop=1;jettySize=auto;html=1;entryX=0;entryY=0.5;entryDx=0;entryDy=0;fontSize=12;startSize=8;endSize=8;endArrow=none;endFill=0;" edge="1" parent="1" source="ENpR0SlxcovqX8DCcxiT-3" target="ENpR0SlxcovqX8DCcxiT-28">
          <mxGeometry relative="1" as="geometry" />
        </mxCell>
        <mxCell id="ENpR0SlxcovqX8DCcxiT-39" style="edgeStyle=none;curved=1;rounded=0;orthogonalLoop=1;jettySize=auto;html=1;entryX=0;entryY=0.5;entryDx=0;entryDy=0;fontSize=12;startSize=8;endSize=8;endArrow=none;endFill=0;" edge="1" parent="1" source="ENpR0SlxcovqX8DCcxiT-3" target="ENpR0SlxcovqX8DCcxiT-38">
          <mxGeometry relative="1" as="geometry" />
        </mxCell>
        <mxCell id="ENpR0SlxcovqX8DCcxiT-3" value="User" style="shape=umlActor;verticalLabelPosition=bottom;verticalAlign=top;html=1;outlineConnect=0;" vertex="1" parent="1">
          <mxGeometry x="-160" y="-40" width="40" height="80" as="geometry" />
        </mxCell>
        <mxCell id="ENpR0SlxcovqX8DCcxiT-19" style="edgeStyle=none;curved=0;rounded=0;orthogonalLoop=1;jettySize=auto;html=1;fontSize=12;startSize=8;endSize=12;endArrow=block;endFill=0;strokeWidth=1;" edge="1" parent="1">
          <mxGeometry relative="1" as="geometry">
            <mxPoint x="580" y="190" as="sourcePoint" />
            <mxPoint x="-140" y="70" as="targetPoint" />
            <Array as="points">
              <mxPoint x="580" y="420" />
              <mxPoint x="-140" y="420" />
            </Array>
          </mxGeometry>
        </mxCell>
        <mxCell id="ENpR0SlxcovqX8DCcxiT-34" style="edgeStyle=none;curved=1;rounded=0;orthogonalLoop=1;jettySize=auto;html=1;entryX=1;entryY=0.5;entryDx=0;entryDy=0;fontSize=12;startSize=8;endSize=8;endArrow=none;endFill=0;" edge="1" parent="1" source="ENpR0SlxcovqX8DCcxiT-15" target="ENpR0SlxcovqX8DCcxiT-32">
          <mxGeometry relative="1" as="geometry" />
        </mxCell>
        <mxCell id="ENpR0SlxcovqX8DCcxiT-15" value="Registered User" style="shape=umlActor;verticalLabelPosition=bottom;verticalAlign=top;html=1;outlineConnect=0;" vertex="1" parent="1">
          <mxGeometry x="560" y="80" width="40" height="80" as="geometry" />
        </mxCell>
        <mxCell id="ENpR0SlxcovqX8DCcxiT-24" style="edgeStyle=none;curved=1;rounded=0;orthogonalLoop=1;jettySize=auto;html=1;entryX=1;entryY=0.5;entryDx=0;entryDy=0;fontSize=12;startSize=8;endSize=8;endArrow=none;endFill=0;" edge="1" parent="1" source="ENpR0SlxcovqX8DCcxiT-15" target="ENpR0SlxcovqX8DCcxiT-14">
          <mxGeometry relative="1" as="geometry" />
        </mxCell>
        <mxCell id="ENpR0SlxcovqX8DCcxiT-25" style="edgeStyle=none;curved=1;rounded=0;orthogonalLoop=1;jettySize=auto;html=1;entryX=1;entryY=0.5;entryDx=0;entryDy=0;fontSize=12;startSize=8;endSize=8;endArrow=none;endFill=0;" edge="1" parent="1" source="ENpR0SlxcovqX8DCcxiT-15" target="ENpR0SlxcovqX8DCcxiT-13">
          <mxGeometry relative="1" as="geometry" />
        </mxCell>
        <mxCell id="ENpR0SlxcovqX8DCcxiT-27" style="edgeStyle=none;curved=1;rounded=0;orthogonalLoop=1;jettySize=auto;html=1;entryX=1;entryY=0.5;entryDx=0;entryDy=0;fontSize=12;startSize=8;endSize=8;endArrow=none;endFill=0;" edge="1" parent="1" source="ENpR0SlxcovqX8DCcxiT-15" target="ENpR0SlxcovqX8DCcxiT-7">
          <mxGeometry relative="1" as="geometry" />
        </mxCell>
        <mxCell id="ENpR0SlxcovqX8DCcxiT-29" style="edgeStyle=none;curved=1;rounded=0;orthogonalLoop=1;jettySize=auto;html=1;fontSize=12;startSize=8;endSize=8;entryX=1;entryY=0.5;entryDx=0;entryDy=0;endArrow=none;endFill=0;" edge="1" parent="1" source="ENpR0SlxcovqX8DCcxiT-15" target="ENpR0SlxcovqX8DCcxiT-30">
          <mxGeometry relative="1" as="geometry">
            <mxPoint x="320" y="160" as="targetPoint" />
          </mxGeometry>
        </mxCell>
        <mxCell id="ENpR0SlxcovqX8DCcxiT-56" style="edgeStyle=none;curved=1;rounded=0;orthogonalLoop=1;jettySize=auto;html=1;entryX=1;entryY=0.5;entryDx=0;entryDy=0;fontSize=12;startSize=8;endSize=8;endArrow=none;endFill=0;" edge="1" parent="1" source="ENpR0SlxcovqX8DCcxiT-15" target="ENpR0SlxcovqX8DCcxiT-55">
          <mxGeometry relative="1" as="geometry">
            <mxPoint x="540" y="112" as="sourcePoint" />
            <mxPoint x="450" y="210" as="targetPoint" />
          </mxGeometry>
        </mxCell>
      </root>
    </mxGraphModel>
  </diagram>
</mxfile>
